<?xml version="1.0" encoding="UTF-8"?>
<svg id="Camada_2" data-name="Camada 2" xmlns="http://www.w3.org/2000/svg" xmlns:xlink="http://www.w3.org/1999/xlink" viewBox="0 0 3035.67 2430.91">
  <defs>
    <style>
      .cls-1 {
        fill: #fff;
      }

      .cls-2 {
        fill: #969696;
      }

      .cls-3 {
        fill: #9a15a1;
      }

      .cls-4 {
        fill: #330973;
      }

      .cls-5 {
        fill: #d61de0;
      }

      .cls-6 {
        fill: #22a7f0;
      }

      .cls-7 {
        fill: #07e0b3;
      }

      .cls-8 {
        fill: #371a45;
      }

      .cls-9 {
        fill: #707070;
      }

      .cls-10 {
        fill: #6311e1;
      }

      .cls-11 {
        fill: url(#Gradiente_sem_nome_15);
      }

      .cls-12 {
        fill: url(#Gradiente_sem_nome_15-2);
      }

      .cls-13 {
        opacity: .3;
      }

      .cls-14 {
        opacity: .35;
      }

      .cls-15 {
        opacity: .7;
      }
    </style>
    <linearGradient id="Gradiente_sem_nome_15" data-name="Gradiente sem nome 15" x1="675.69" y1="1899.73" x2="860.45" y2="1899.73" gradientTransform="translate(1395.27 -407) rotate(40.47)" gradientUnits="userSpaceOnUse">
      <stop offset="0" stop-color="#5f12e0"/>
      <stop offset=".19" stop-color="#6817e0"/>
      <stop offset=".49" stop-color="#8124e1"/>
      <stop offset=".58" stop-color="#8a29e2"/>
      <stop offset=".99" stop-color="#6210e1"/>
    </linearGradient>
    <linearGradient id="Gradiente_sem_nome_15-2" data-name="Gradiente sem nome 15" x1="724.66" y1="1980.65" x2="811.48" y2="1980.65" xlink:href="#Gradiente_sem_nome_15"/>
  </defs>
  <g id="Layer_1" data-name="Layer 1">
    <g>
      <g>
        <path class="cls-1" d="M1939.9,959.87s263.95-20.23,341.58,33.51c139.91,96.86,179.13,621.03,70.48,806.8-79.76,136.37-568.53,65.99-568.53,65.99"/>
        <g class="cls-14">
          <path class="cls-8" d="M2351.97,1800.19c-79.75,136.36-568.54,65.97-568.54,65.97l42.83-248.16c106.32,12.57,471.5,46.53,539.48-69.7,21.2-36.22,36.77-85.34,47.04-141.62,7.6,153.14-11.18,308.65-60.82,393.51Z"/>
        </g>
        <path class="cls-8" d="M2044.19,1899.59c-2.15,0-4.29,0-6.46-.01-131.7-.55-255.23-18.12-256.47-18.3-8.34-1.2-14.13-8.94-12.93-17.28,1.2-8.34,8.98-14.14,17.28-12.93,133.13,19.15,492.03,45.97,553.18-58.58,106.65-182.36,63.48-696.92-65.99-786.55-60-41.53-259.8-36.35-331.73-30.84-8.42,.63-15.74-5.65-16.39-14.06-.64-8.4,5.65-15.74,14.05-16.38,11-.84,270.28-20,351.44,36.18,68.76,47.6,119.22,190.16,134.98,381.35,11.98,145.38,2.51,338.81-60,445.7-35.6,60.86-143.57,91.7-320.96,91.7Z"/>
        <path class="cls-5" d="M2400.08,1424.96l-135.55,10.48c-12.1,.94-22.05,9.9-24.19,21.84-7.81,43.75-20.62,145.74,22,179.32,35.37,27.87,92.7,24.46,126.23-4.05,37.51-31.89,40.95-131.9,40.23-181.4-.22-15.39-13.38-27.38-28.72-26.19Z"/>
        <g class="cls-14">
          <path class="cls-8" d="M2240.35,1457.31c-7.84,43.74-20.62,145.73,22,179.29,35.38,27.88,92.69,24.47,126.23-4.05,23.05-19.63,33.23-65.01,37.48-108.55-6.06,21.76-15.61,39.44-27.51,51.06-68.18,66.54-119.36-11.62-119.36-11.62,0,0-8.81,19.03-15.86,20.12-29.49,4.57-23.6-87.8-19.44-135.52-1.72,2.75-2.96,5.87-3.55,9.27Z"/>
        </g>
        <path class="cls-8" d="M2321.87,1671.1c-25.07,0-49.86-7.44-68.97-22.5-47.46-37.39-37.65-137.59-27.58-193.99,3.35-18.77,18.99-32.91,38.04-34.38l135.55-10.49c11.52-.88,22.98,3.06,31.5,10.83,8.52,7.77,13.49,18.83,13.66,30.36,1.01,69.61-6.08,159.65-45.61,193.25-21.02,17.87-48.97,26.91-76.59,26.91Zm79.38-230.92l-135.55,10.49c-5.18,.4-9.43,4.23-10.34,9.31-14.87,83.28-8.73,144.83,16.43,164.64,28.85,22.73,77.8,21.04,106.89-3.69,23.08-19.63,36.11-83.01,34.86-169.55-.04-3.18-1.36-6.11-3.71-8.25-2.34-2.14-5.37-3.19-8.57-2.94h0Z"/>
        <path class="cls-8" d="M2323.65,1667.59c-3-1.7-4.5-2.88-6.5-4.36-1.83-1.42-3.6-2.87-5.24-4.39-3.35-3.01-6.4-6.19-9.22-9.53-5.6-6.69-10.57-13.78-14.42-21.36-8.02-15-12.85-31.16-15.23-47.31-1.02-8.1-1.91-16.16-1.96-24.22-.41-8.1,0-15.84,.29-23.79,.37-7.89,1.02-15.79,2.07-23.68,1.18-7.99,2.3-15.52,5.24-23.85,.74-2.09,3.03-3.19,5.13-2.45,1.95,.69,3.04,2.74,2.57,4.71l-.13,.52c-1.58,6.53-2.15,14.52-2.42,21.94-.24,7.57-.09,15.18,.33,22.79,.85,15.32,2.49,30.3,6.05,44.56,3.59,14.27,9.31,27.78,17.19,39.42,3.79,5.93,8.41,11.16,13.25,15.89,2.43,2.36,5.01,4.53,7.66,6.44,1.31,1,2.65,1.86,3.97,2.69,1.19,.73,2.94,1.68,3.35,1.81,7.19,2.2,11.23,9.82,9.03,17.01-2.2,7.19-9.82,11.23-17.01,9.03-.95-.29-1.85-.68-2.68-1.15l-1.31-.75Z"/>
        <path class="cls-8" d="M2098.93,1054.77c-5.79,0-11.32-3.31-13.89-8.91-3.51-7.66-.15-16.72,7.52-20.23,123.75-56.68,199.59-39.75,202.75-39.01,8.2,1.94,13.28,10.16,11.34,18.37-1.93,8.19-10.12,13.26-18.29,11.36-.95-.21-70.04-14.75-183.09,37.03-2.06,.94-4.22,1.39-6.35,1.39Z"/>
      </g>
      <path class="cls-1" d="M1400.07,1056.31s-121.22,363.92-453.89,481.39v223.24h453.89v-704.63Z"/>
      <path class="cls-1" d="M1400.08,1056.29v704.63h-453.88v-223.24c332.65-117.46,453.88-481.39,453.88-481.39Z"/>
      <g class="cls-14">
        <path class="cls-8" d="M1400.08,1198.63v562.3h-400.57c292.39-145.2,400.57-562.3,400.57-562.3Z"/>
      </g>
      <path class="cls-8" d="M1415.33,1776.21h-484.41v-249.3l10.18-3.59c321.52-113.54,443.3-468.26,444.49-471.83l29.74-89.03v813.76Zm-453.89-30.53h423.36v-613.5c-16.79,35.24-41.16,80.64-74.31,129.37-65.58,96.39-178.96,223.45-349.05,286.86v197.28Z"/>
      <path class="cls-1" d="M2250.72,1760.93h-989.12s54.45-273.76,103.91-569.28c7.67-45.79,15.23-92.12,22.44-138.03,60.14-383.25,633.35-133.33,633.35-133.33,0,0,22.4,30.64,53.2,91.09,63.77,124.98,163.63,377.45,176.23,749.55Z"/>
      <path class="cls-8" d="M2266.5,1776.21h-1023.51l3.63-18.24c.73-3.65,73.2-368.85,126.23-706.72,13.83-88.1,54.98-151.51,122.32-188.47,189.25-103.87,518.33,37.44,532.24,43.51l3.79,1.65,2.44,3.34c2.2,3.01,54.48,75.4,109.58,216.79,50.62,129.91,113.01,345.07,122.74,632.36l.54,15.78Zm-986.35-30.53h954.71c-20.45-499.13-200.85-779.64-223.56-813.05-37.6-15.59-335.86-134.03-501.48-43.06-58.59,32.18-94.53,88.17-106.82,166.42-46.36,295.35-107.53,611.49-122.85,689.7Z"/>
      <g>
        <g class="cls-14">
          <path class="cls-8" d="M1730.05,1802.38c-1.56,8.28-3.01,16.41-4.35,24.42,1.3-8.01,2.75-16.14,4.35-24.42Z"/>
        </g>
        <g class="cls-14">
          <path class="cls-8" d="M1352.91,1438.48c-9.27,83.38-14.65,155.66-15.76,215.95-1.53-56.17,3.93-128.64,15.76-215.95Z"/>
        </g>
        <circle class="cls-3" cx="1307.47" cy="1560.94" r="70.96" transform="translate(-720.8 1381.71) rotate(-45)"/>
        <g class="cls-14">
          <path class="cls-8" d="M1236.55,1562.78c1.02,39.18,33.59,70.14,72.76,69.12,39.18-1.02,70.14-33.64,69.12-72.82-.28-10.82-2.97-21.08-7.61-30.15-10.76,24.25-34.79,41.52-63.09,42.26-28.3,.74-53.2-15.25-65.15-38.92-4.16,9.3-6.31,19.68-6.03,30.5Z"/>
        </g>
        <path class="cls-8" d="M1307.44,1644.41c-45.02,0-82.23-36.02-83.4-81.29h0c-.58-22.29,7.55-43.46,22.9-59.63,15.35-16.17,36.07-25.39,58.36-25.97,22.38-.56,43.46,7.55,59.63,22.9,16.17,15.35,25.39,36.07,25.97,58.36,1.2,46-35.25,84.41-81.25,85.61-.74,.02-1.47,.03-2.21,.03Zm.07-141.93c-.52,0-1.04,0-1.56,.02-15.62,.41-30.13,6.87-40.88,18.2-10.75,11.33-16.45,26.16-16.04,41.77,.84,32.23,27.86,57.62,59.97,56.92,32.23-.84,57.76-27.74,56.92-59.97-.41-15.61-6.87-30.13-18.19-40.88-10.95-10.39-25.18-16.06-40.21-16.06Z"/>
        <g>
          <g class="cls-14">
            <path class="cls-8" d="M1341.86,1630.09c12.12-79.67,14.42-153.53,11.06-219.28-1.63,37.97-5.23,77.82-11.56,119.31-7.37,48.66-9.64,99.46-5.12,149.33,1.26-16.59,3.17-33.1,5.62-49.36Z"/>
          </g>
          <path class="cls-5" d="M1410.17,1767.51l370.58,19.04c43.86,2.27,81.63-31.78,83.89-75.7l10.12-197.2c1.98-38.45-23.9-72.15-59.84-81.45-5.09-1.35-10.39-2.15-15.86-2.44l-370.52-19.04c-43.92-2.27-81.68,31.78-83.89,75.7l-8.06,156.19-2.12,41.01c-2.27,43.92,31.84,81.63,75.7,83.89Z"/>
          <g class="cls-14">
            <path class="cls-8" d="M1410.17,1767.51l370.58,19.04c43.86,2.27,81.63-31.78,83.89-75.7l10.12-197.2c1.98-38.45-23.9-72.15-59.84-81.45-21.76,12.89-35.58,21.15-35.58,21.15-26.18,157.37-75.31,233.98-272.04,227.09-84.92-3-137.81-18.69-170.71-37.84l-2.12,41.01c-2.27,43.92,31.84,81.63,75.7,83.89Z"/>
          </g>
          <path class="cls-8" d="M1784.89,1801.94c-1.65,0-3.3-.04-4.95-.13h0l-370.55-19.05c-25.3-1.3-48.63-12.44-65.7-31.35-17.07-18.92-25.75-43.27-24.45-68.57l10.14-197.23c2.69-52.4,47.6-92.81,99.92-90.15l370.55,19.05c52.4,2.7,92.85,47.52,90.15,99.93l-10.14,197.23c-1.3,25.3-12.44,48.63-31.36,65.7-17.68,15.95-40.11,24.58-63.61,24.58Zm-3.39-30.62c35.54,1.86,66.04-25.64,67.87-61.23l10.14-197.23c1.83-35.59-25.64-66.04-61.24-67.87l-370.54-19.05c-17.15-.89-33.69,5.03-46.55,16.63-12.87,11.61-20.43,27.45-21.32,44.6l-10.14,197.23c-.88,17.15,5.02,33.69,16.63,46.55,11.61,12.87,27.45,20.44,44.6,21.32l370.55,19.05h0Z"/>
          <path class="cls-1" d="M1395.37,1765.29c4.75,1.24,9.67,1.99,14.8,2.22l370.58,19.04c32.14,1.64,61-16.17,75.01-43.16,5.11-9.8,8.25-20.82,8.83-32.53l4.54-87.61,1.5-28.91,4.15-80.69c2.27-43.91-31.84-81.62-75.7-83.89l-80.07-4.1c36.55,8.85,62.98,42.83,61.01,81.67l-5.44,106.52-4.68,90.73c-2.27,43.86-40.03,77.97-83.89,75.7l-290.61-15Z"/>
          <g class="cls-14">
            <path class="cls-8" d="M1395.37,1765.29c4.75,1.24,9.67,1.99,14.8,2.22l370.58,19.04c43.86,2.27,81.63-31.78,83.84-75.7l6.03-116.51c-10.38,20.11-28.42,44.52-55.35,45.79-14.78,.73-28.7-10.59-40.71-26.28l-4.68,90.73c-2.27,43.86-40.03,77.97-83.89,75.7l-290.61-15Z"/>
          </g>
          <path class="cls-8" d="M1784.95,1801.94c-1.66,0-3.33-.04-5-.13l-370.57-19.06c-5.93-.27-11.95-1.16-17.8-2.65l4.56-30.04,290.64,14.97c17.12,.88,33.65-5.01,46.51-16.62,12.87-11.61,20.44-27.46,21.31-44.61l10.14-197.23c1.59-30.97-19.16-58.77-49.34-66.1l4.38-30.08,80.04,4.1c25.31,1.32,48.64,12.46,65.71,31.37,17.08,18.92,25.76,43.28,24.44,68.57l-10.14,197.22c-1.29,25.3-12.42,48.64-31.35,65.71-17.67,15.94-40.07,24.57-63.55,24.57Zm-29.98-31.98l26.56,1.37c17.13,.89,33.65-5.01,46.52-16.62,12.87-11.61,20.44-27.45,21.31-44.6h0s10.14-197.23,10.14-197.23c.89-17.16-5.01-33.68-16.62-46.55-11.61-12.87-27.46-20.44-44.62-21.33l-23.86-1.22c14.2,17.7,22.07,40.39,20.83,64.38l-10.14,197.22c-1.26,24.74-11.94,47.62-30.13,64.59Z"/>
          <path class="cls-6" d="M1628.74,1600.05c-.33,7.29,7.23,66.65,7.23,66.65,0,0,18.65,.85,41.56,1.9,28.62,1.31,53.17-27.26,54.84-63.82s-20.18-67.24-48.8-68.55c-19.31-.88-41.56-1.9-41.56-1.9,0,0-12.73,53.83-13.28,65.71Z"/>
          <g class="cls-14">
            <path class="cls-8" d="M1628.74,1600.05c-.33,7.29,7.23,66.65,7.23,66.65,0,0,18.65,.85,41.56,1.9,28.62,1.31,53.17-27.26,54.84-63.82s-20.18-67.24-48.8-68.55c-19.31-.88-41.56-1.9-41.56-1.9,0,0-12.73,53.83-13.28,65.71Z"/>
          </g>
          <path class="cls-8" d="M1679.39,1680.09c-.79,0-1.58-.02-2.38-.06l-28.87-1.32c-12.96-.59-23.52-10.36-25.11-23.23-6.04-49.11-5.82-54.09-5.73-55.96,.32-6.97,3.92-25.63,10.71-55.45,2.85-12.53,14.35-21.24,27.07-20.6l29.02,1.32c17.43,.8,33.26,9.98,44.56,25.85,10.69,15.02,16.07,34.43,15.15,54.65-1.91,41.82-30.57,74.78-64.41,74.79Zm-39.22-79.55c-.02,1.02,.18,8.22,5.59,52.15,.21,1.75,1.66,3.07,3.43,3.15l28.87,1.32c22.41,1.01,41.5-22.72,42.88-52.9,.69-15.13-3.19-29.46-10.93-40.33-7.13-10.02-16.7-15.79-26.95-16.26l-29.02-1.32c-1.8-.05-3.32,1.11-3.7,2.81-9.03,39.67-10.06,49.34-10.16,51.38Zm-11.44-.49h0Z"/>
          <ellipse class="cls-6" cx="1638.99" cy="1600.52" rx="66.25" ry="51.87" transform="translate(-34.61 3164.82) rotate(-87.39)"/>
          <path class="cls-1" d="M1690.82,1602.88c-.34,7.59-1.68,14.81-3.86,21.52,.73-35.57-20.8-65.03-48.84-66.32-22.67-1.03-42.78,16.71-50.98,42.32-.04-.76,0-1.49,.04-2.25,1.68-36.56,26.22-65.1,54.84-63.8,28.62,1.3,50.45,31.98,48.81,68.54Z"/>
          <g class="cls-14">
            <path class="cls-8" d="M1690.82,1602.88c-1.68,36.56-26.22,65.14-54.84,63.84-28.62-1.34-50.49-32.02-48.81-68.57,.34-7.1,1.53-13.89,3.47-20.23,7.14,23.16,24.42,39.8,45.33,40.76,23.05,1.03,43.47-17.29,51.36-43.58,2.67,8.51,3.93,17.94,3.47,27.78Z"/>
          </g>
          <path class="cls-8" d="M1637.9,1678.2c-.82,0-1.63-.02-2.45-.06-34.87-1.59-61.66-37.7-59.71-80.5h0c1.96-42.8,31.77-76.39,66.8-74.73,17.43,.8,33.26,9.98,44.56,25.85,10.69,15.02,16.07,34.43,15.15,54.65-.92,20.22-8.05,39.06-20.06,53.04-12.1,14.09-27.74,21.74-44.28,21.74Zm-39.29-79.52c-1.37,30.19,15.62,55.57,37.89,56.59,10.18,.46,20.3-4.41,28.32-13.74,8.7-10.12,13.87-24.03,14.56-39.16,.69-15.14-3.19-29.46-10.93-40.33-7.13-10.02-16.7-15.79-26.95-16.26-22.43-1.01-41.5,22.72-42.88,52.9h0Z"/>
          <path class="cls-8" d="M1525.45,1783.45c-.11,0-.21,0-.32,0-6.32-.17-11.3-5.44-11.13-11.76l3.63-130.79-61.53-43.25,8.86-184.9c.3-6.32,5.76-11.08,11.98-10.89,6.32,.3,11.19,5.67,10.89,11.98l-8.26,172.32,61.29,43.08-3.97,143.09c-.18,6.21-5.26,11.13-11.44,11.13Z"/>
        </g>
        <path class="cls-1" d="M2196.48,1510.3s34.29,27.29,35.8,69.4c1.74,48.68-28.71,68.42-28.71,68.42,0,0-133.28,68.24-347.1,22.9,0,0-62.94-79.55,7.16-124.44,0,0,225.69,31,332.85-36.28Z"/>
        <g class="cls-14">
          <path class="cls-8" d="M2232.27,1579.73c1.74,48.62-28.69,68.36-28.69,68.36,0,0-133.26,68.26-347.13,22.91,0,0-20.69-26.23-25.09-56.98,1.01,1.52,1.66,2.31,1.66,2.31,156.3,33.17,269.55,5.61,319.17-11.62,34.47-11.96,57.5-43.26,56.7-78.2-.01-.48-.03-.96-.04-1.45-.02-.81-.04-1.62-.19-2.4,10.01,11.94,22.73,31.85,23.62,57.07Z"/>
        </g>
        <path class="cls-8" d="M2001.32,1701.95c-43.6,0-93.18-4.37-148.01-16l-5.39-1.14-3.42-4.32c-1.46-1.85-35.76-45.83-28.15-91.26,3.8-22.67,16.94-41.34,39.05-55.51l4.74-3.03,5.57,.76c2.19,.3,221.47,29.44,322.66-34.08l9.16-5.75,8.46,6.74c1.62,1.29,39.81,32.23,41.55,80.79,2.04,56.68-34.12,80.78-35.66,81.78l-1.34,.78c-4.21,2.16-80.58,40.24-209.21,40.24Zm-135.89-44.66c193.34,39.38,318.84-16.89,330.36-22.35,3.46-2.64,22.53-18.83,21.25-54.69-.83-23.21-14.2-41.49-22.84-50.94-104.49,56.65-290.51,37.55-326.74,33.15-12.01,8.83-18.9,19.28-21,31.82-4.23,25.23,12.01,52.68,18.96,63.02Z"/>
      </g>
      <g>
        <g class="cls-14">
          <path class="cls-8" d="M2074.49,1011.38c-90.78,123.64-226.94,204.65-375.46,228.01-10.91,1.68-21.87,3.09-32.86,4.2-30.22,2.94-60.87,3.55-91.66,1.6-25.45-1.6-51.1-4.88-76.63-10.04-29.61-5.88-59.11-14.2-88.34-25.03-9.65-3.63-19.19-7.44-28.51-11.49-5.23-2.25-10.42-4.58-15.53-6.98,7.67-45.79,15.23-92.12,22.44-138.03,60.14-383.25,633.35-133.33,633.35-133.33,0,0,22.4,30.64,53.2,91.09Z"/>
        </g>
        <g>
          <path class="cls-1" d="M1098.97,890.79c49.92,82.4,120.63,152.68,208.15,202.18,17.85,10.09,36.33,19.32,55.49,27.59,9.31,4.05,18.85,7.86,28.52,11.51,29.21,10.84,58.72,19.15,88.35,25.03,25.52,5.13,51.14,8.42,76.62,10.03,30.77,1.95,61.41,1.35,91.63-1.6,11.02-1.11,21.97-2.52,32.87-4.2,199.29-31.33,376.26-166.46,451.42-369.05,110.78-298.42-41.38-630.11-339.75-740.88-57.48-21.29-116.24-32.94-174.38-35.53-6.79-.37-13.62-.54-20.44-.56-18.25-.2-36.4,.47-54.41,2.01-41.66,3.56-82.59,11.67-122.04,23.96-39.45,12.24-77.52,28.72-113.41,49.05-11.41,6.46-22.61,13.29-33.6,20.55-16.45,10.88-32.38,22.56-47.72,35.17-76.56,62.58-138,145.74-174.88,245.16-63.73,171.66-40.44,354.3,47.59,499.6Z"/>
          <path class="cls-8" d="M1591.79,1169.79c-11.98,0-23.93-.38-35.79-1.13-25.94-1.64-51.78-5.02-76.83-10.06-29.9-5.94-59.71-14.38-88.57-25.1-10.61-4-19.97-7.77-28.6-11.54-18.81-8.12-37.53-17.43-55.63-27.66-85.49-48.36-157.66-118.46-208.7-202.73-92.08-152-109.48-334.58-47.72-500.93,35.69-96.23,96.33-181.23,175.35-245.82,14.93-12.28,31.03-24.14,47.84-35.27,10.77-7.11,22.1-14.05,33.69-20.6,35.98-20.38,74.23-36.92,113.71-49.17,39.83-12.41,81-20.49,122.36-24.02,17.98-1.53,36.35-2.21,54.56-2.01,7.31,.03,14.02,.21,20.51,.57,59.33,2.64,118.15,14.63,174.83,35.62,298.72,110.91,451.54,444.15,340.65,742.86-72.63,195.77-246.06,337.56-452.62,370.04-10.86,1.68-21.95,3.1-32.95,4.21-18.66,1.82-37.42,2.73-56.09,2.73Zm-491.5-279.8c50.78,83.81,122.56,153.54,207.59,201.64,18.01,10.18,36.63,19.43,55.35,27.52,8.59,3.75,17.9,7.5,28.45,11.48,28.71,10.65,58.35,19.06,88.1,24.96,24.91,5.01,50.62,8.38,76.42,10,30.16,1.92,60.92,1.37,91.38-1.6,10.94-1.11,21.97-2.52,32.78-4.19,205.46-32.3,377.97-173.34,450.21-368.07,110.29-297.12-41.71-628.59-338.84-738.91-56.38-20.89-114.89-32.81-173.91-35.43-6.45-.35-13.12-.53-20.38-.56-18.12-.18-36.38,.48-54.27,2-41.14,3.51-82.09,11.55-121.71,23.9-39.27,12.19-77.32,28.64-113.11,48.92-11.53,6.52-22.8,13.42-33.51,20.49-16.73,11.06-32.74,22.87-47.59,35.08-78.6,64.25-138.92,148.79-174.42,244.51-61.43,165.46-44.13,347.08,47.47,498.27Z"/>
        </g>
        <g class="cls-14">
          <path class="cls-8" d="M2132.01,792.26c-75.14,202.61-252.13,337.75-451.42,369.05-10.89,1.7-21.84,3.11-32.84,4.21-30.23,2.97-60.86,3.55-91.63,1.62-25.48-1.63-51.11-4.9-76.62-10.03-29.64-5.88-59.14-14.19-88.37-25.03-9.65-3.68-19.19-7.46-28.52-11.5-19.16-8.29-37.63-17.55-55.49-27.62-87.51-49.51-158.24-119.76-208.16-202.19-27.43-45.26-48.59-94.19-62.78-145.26,49.43,77.55,117.64,143.66,201.12,190.89,17.84,10.12,36.32,19.33,55.49,27.62,9.29,4.05,18.83,7.83,28.52,11.5,29.23,10.84,58.73,19.15,88.34,25.04,25.54,5.11,51.13,8.4,76.62,10.02,30.77,1.93,61.43,1.33,91.63-1.62,11.04-1.12,21.99-2.52,32.88-4.22,199.29-31.3,376.25-166.42,451.42-369.05,43.88-118.19,46.47-241.6,15.11-354.4,93.86,147.08,120.1,334.82,54.7,510.96Z"/>
        </g>
        <path class="cls-8" d="M1591.78,1180.08c-12.2,0-24.36-.38-36.43-1.15-26.4-1.67-52.71-5.11-78.21-10.24-30.41-6.04-60.75-14.63-90.13-25.54-10.83-4.08-20.33-7.92-29.13-11.75-19.12-8.26-38.16-17.73-56.59-28.13-87.03-49.23-160.48-120.59-212.45-206.36-93.72-154.71-111.42-340.54-48.56-509.85,36.33-97.94,98.05-184.46,178.49-250.2,15.18-12.48,31.57-24.56,48.68-35.88,10.97-7.25,22.5-14.3,34.3-20.98,36.61-20.74,75.55-37.58,115.73-50.05,40.53-12.63,82.44-20.85,124.54-24.45,18.32-1.56,37.04-2.27,55.54-2.05,7.41,.03,14.3,.22,20.96,.58,60.29,2.68,120.17,14.88,177.85,36.25,304.05,112.89,459.58,452.07,346.73,756.1-73.92,199.26-250.44,343.57-460.67,376.62-11.06,1.71-22.33,3.15-33.51,4.29-19.01,1.86-38.12,2.79-57.14,2.79Zm-482.69-295.43c49.86,82.31,120.35,150.78,203.85,198.02,17.69,9.99,35.98,19.09,54.36,27.03,8.47,3.69,17.61,7.38,28,11.3,28.15,10.45,57.26,18.7,86.47,24.5,24.48,4.92,49.73,8.23,75.06,9.83,29.64,1.88,59.83,1.36,89.74-1.57,10.73-1.08,21.58-2.47,32.21-4.12,201.76-31.72,371.19-170.23,442.13-361.48,108.32-291.8-40.96-617.33-332.77-725.68-55.37-20.51-112.84-32.22-170.79-34.8-6.38-.35-12.87-.52-19.97-.55-17.83-.16-35.79,.47-53.35,1.96-40.4,3.45-80.62,11.34-119.53,23.47-38.57,11.97-75.95,28.13-111.1,48.04-11.32,6.41-22.39,13.18-32.91,20.12-16.43,10.87-32.15,22.45-46.73,34.44-77.21,63.11-136.44,146.14-171.3,240.14-60.33,162.5-43.34,340.86,46.62,489.36Z"/>
        <path class="cls-8" d="M1591.78,1183.52c-12.28,0-24.51-.39-36.65-1.15-26.55-1.67-53.02-5.14-78.67-10.3-30.58-6.07-61.09-14.72-90.64-25.68-10.89-4.11-20.45-7.97-29.31-11.82-19.21-8.3-38.37-17.83-56.9-28.29-87.53-49.52-161.43-121.3-213.69-207.57h0c-94.27-155.61-112.07-342.53-48.85-512.82,36.54-98.51,98.62-185.53,179.54-251.67,15.26-12.55,31.74-24.7,48.96-36.09,11.04-7.29,22.64-14.39,34.5-21.1,36.83-20.86,75.99-37.8,116.4-50.34,40.77-12.7,82.92-20.98,125.27-24.59,18.43-1.57,37.27-2.24,55.87-2.06,7.45,.03,14.38,.22,21.1,.59,60.62,2.7,120.84,14.97,178.86,36.46,305.83,113.55,462.27,454.71,348.75,760.51-74.35,200.42-251.9,345.57-463.35,378.82-11.13,1.73-22.46,3.17-33.7,4.31-19.13,1.87-38.36,2.81-57.49,2.81Zm-479.75-300.64c49.56,81.81,119.62,149.86,202.6,196.81,17.58,9.93,35.76,18.97,54.03,26.86,8.42,3.67,17.51,7.34,27.85,11.24,27.96,10.38,56.9,18.57,85.93,24.34,24.34,4.89,49.42,8.18,74.61,9.77,29.45,1.87,59.46,1.35,89.18-1.56,10.65-1.08,21.45-2.46,32.01-4.09,200.53-31.53,368.93-169.2,439.44-359.28,107.66-290.02-40.71-613.58-330.75-721.26-55.03-20.39-112.15-32.03-169.75-34.59-6.35-.34-12.79-.52-19.82-.55-17.83-.19-35.61,.46-53.06,1.95-40.15,3.43-80.12,11.27-118.79,23.32-38.34,11.9-75.49,27.97-110.42,47.75-11.26,6.37-22.26,13.1-32.71,20-16.33,10.8-31.95,22.32-46.44,34.23-76.74,62.73-135.61,145.25-170.26,238.68-59.97,161.52-43.08,338.79,46.34,486.38h0Z"/>
        <path class="cls-10" d="M1191.06,1006.25c348.65,219.37,799.31,29.17,803.86-378.79,3.1-277.55-266.27-494.87-533.03-480.77-194.15,10.26-379.21,105.21-445.67,410.9,0,0-8.52,139.86,33.67,230.67,42.19,90.8,98.54,172,98.54,172l42.62,46Z"/>
        <path class="cls-4" d="M1994.9,627.47c-4.54,407.95-455.21,598.14-803.84,378.8l-8.63-9.33c374.29,48.3,733.34-191.75,745.61-604.14,42.85,69.11,67.8,149.03,66.86,234.68Z"/>
        <path class="cls-8" d="M1503.03,1172.81c-8.03,0-16.07-.15-24.14-.46l-2.39-.28c-30.62-6.08-61.13-14.72-90.68-25.69-10.89-4.11-20.45-7.97-29.31-11.82-19.21-8.3-38.37-17.83-56.9-28.29-87.53-49.52-161.43-121.3-213.69-207.57-94.27-155.61-112.07-342.53-48.85-512.82,36.54-98.51,98.62-185.53,179.54-251.67l1.23-1,1.41-.73c67.65-35.07,147.19-55.24,236.4-59.96,159.01-8.4,325.67,55.54,446.07,171.04,110.65,106.14,170.72,242.8,169.13,384.78-1.74,154.31-58.29,288.82-163.55,388.99-104.55,99.51-250.76,155.49-404.25,155.49Zm-21.76-30.92c153.55,5.58,301.15-47.86,404.97-146.67,99.15-94.37,152.43-221.35,154.07-367.22,1.49-133.46-55.23-262.17-159.73-362.41-114.43-109.76-272.68-170.57-423.33-162.58-84.22,4.45-159.08,23.24-222.55,55.85-76.11,62.58-134.54,144.72-169,237.64-59.97,161.52-43.08,338.79,46.34,486.38,49.56,81.81,119.62,149.86,202.6,196.81,17.58,9.93,35.76,18.97,54.03,26.86,8.42,3.67,17.51,7.34,27.85,11.24,27.58,10.23,56.11,18.35,84.75,24.11Z"/>
        <path class="cls-8" d="M1504.45,1113.76c-109.74,0-221.69-31.77-321.52-94.59l-1.7-1.07-45.34-49.14c-2.33-3.36-57.59-83.32-99.85-174.27-43.32-93.24-35.42-232.16-35.06-238.03l.32-2.31c58.16-267.56,212.86-409.85,459.78-422.9,141.85-7.43,290.66,49.56,398.11,152.62,98.78,94.75,152.41,216.77,151,343.56-2.04,183.07-92.63,336.8-248.54,421.77-78.96,43.03-167.34,64.35-257.2,64.35Zm-303.57-119.37c171.9,107.37,381.01,118.22,546.16,28.21,145.92-79.53,230.7-223.61,232.62-395.31,1.32-118.27-48.97-232.34-141.6-321.19-101.46-97.33-241.75-151.22-375.36-144.17-231.11,12.21-376.22,146.02-431.29,397.7-.65,13.25-5.76,140.19,32.33,222.19,38.83,83.57,90.56,159.96,96.65,168.86l40.5,43.7Z"/>
        <ellipse class="cls-1" cx="2100.7" cy="613.13" rx="149.77" ry="206.11" transform="translate(-31.55 120.79) rotate(-3.27)"/>
        <g class="cls-14">
          <path class="cls-8" d="M2123.19,817.75c-76.4,12.02-148.06-57.81-167.41-158.98,15.19,4.24,31.02,5.34,47.09,2.82,81.89-12.9,177.72-109.82,165.32-222.82-.84-7.59-41.45-20.15-42.86-27.44,62.32,17.36,113.68,87.62,123.68,178.44,12.4,113.03-43.92,215.07-125.82,227.97Z"/>
        </g>
        <path class="cls-8" d="M2105.86,834.38c-29.11,0-57.65-10.17-83.52-29.94-46.36-35.43-77.38-96.05-85.1-166.31-13.28-120.82,48.89-230.59,138.59-244.71,35.83-5.64,71.54,4.17,103.23,28.4,46.36,35.43,77.37,96.05,85.09,166.3h0c13.28,120.82-48.89,230.59-138.59,244.71-6.58,1.04-13.16,1.55-19.71,1.55Zm-10.51-411.96c-4.92,0-9.84,.38-14.76,1.16-73.83,11.62-124.52,106.37-113,211.22,6.72,61.09,34.12,115.44,73.3,145.39,24.89,19.03,52.54,26.81,79.94,22.49,73.83-11.62,124.52-106.37,113-211.22h0c-6.71-61.09-34.11-115.44-73.29-145.39-20.42-15.61-42.71-23.65-65.19-23.65Z"/>
        <g>
          <ellipse class="cls-1" cx="2150.56" cy="624.94" rx="122.03" ry="163.58" transform="translate(-13.69 49.19) rotate(-1.31)"/>
          <path class="cls-8" d="M2152.37,790.19c-11.75,0-23.57-2.28-35.22-6.85-65.52-25.71-103.96-117.61-85.7-204.87,10.22-48.86,36.28-87.79,71.48-106.81,25.91-14,53.94-15.78,81.05-5.14,65.51,25.71,103.95,117.61,85.7,204.87-10.22,48.86-36.28,87.79-71.49,106.81-14.77,7.98-30.23,11.99-45.82,11.99Zm-3.6-327.32c-15.07,0-30.03,3.88-44.32,11.6-34.38,18.57-59.85,56.71-69.88,104.65-17.95,85.8,19.61,176.08,83.74,201.24,26.21,10.28,53.3,8.56,78.37-4.98,34.38-18.57,59.85-56.72,69.88-104.66,17.95-85.8-19.61-176.07-83.74-201.24-11.26-4.42-22.7-6.62-34.05-6.62Z"/>
        </g>
        <g class="cls-14">
          <path class="cls-8" d="M2043.55,706.4c-10.79-29.05-13.66-61.17-9.73-92.05,30.19,64.17,93.83,84.71,147.32,45.2,34.57-25.52,56.92-70.28,62.98-118.07,1.93,4.03,3.69,8.31,5.34,12.71,27.45,73.99,3.62,168.05-53.25,210.08-56.87,42.03-125.2,16.09-152.65-57.86Z"/>
        </g>
        <path class="cls-8" d="M2155.73,803.85c-21.53,0-42.75-7.58-62.11-22.32-37.46-28.52-63.6-81.14-69.92-140.78-10.77-101.62,36.17-190.38,106.86-202.08,26.67-4.4,53.38,2.87,77.29,21.06,37.46,28.52,63.6,81.14,69.92,140.78,10.77,101.62-36.17,190.38-106.86,202.08-5.06,.84-10.12,1.25-15.17,1.25Zm-10.2-335.88c-3.34,0-6.67,.27-10,.82-52.92,8.76-90.24,86.04-81.47,168.75,5.45,51.44,27.15,96.18,58.05,119.7,17.04,12.97,35.64,18.25,53.81,15.24,52.92-8.76,90.24-86.04,81.47-168.75-5.45-51.44-27.15-96.19-58.05-119.71-13.93-10.6-28.9-16.06-43.82-16.06Z"/>
        <g class="cls-15">
          <path class="cls-1" d="M1604.28,240.71s-260.06,30.44-395.65,188.24c-.14,.17-.28,.33-.43,.5-28.51,33.24-47.5,73.6-55.3,116.69-10.31,56.98-9.07,97.76-6.59,133.62,7.59,109.05,31.54,158.73,31.54,158.73-66.03-53.3-105.53-116.28-112.75-207.05-.69-8.95-1.07-18.2-1.16-27.71-.03-2.19,0-4.36,.05-6.55-.05-.02-.03-.07,.02-.13,1.17-19.28,3.67-44.55,8.87-72.82,15.63-85.28,55.6-197.87,157.16-255.9,189.9-108.5,382.42-39.62,374.23-27.6Z"/>
        </g>
        <g class="cls-15">
          <ellipse class="cls-1" cx="1816.93" cy="495.71" rx="77.04" ry="89.77" transform="translate(-62.49 617.12) rotate(-18.96)"/>
        </g>
        <g class="cls-15">
          <ellipse class="cls-1" cx="1869.92" cy="649.97" rx="31.81" ry="37.07" transform="translate(-103.28 809.82) rotate(-23.8)"/>
        </g>
      </g>
      <path class="cls-4" d="M2981.35,1700.22c-195.46,423.74-770.11,730.69-1448.62,730.69S279.57,2123.96,84.12,1700.22H2981.35Z"/>
      <g>
        <path class="cls-7" d="M1987.58,2172.26l-18.03,2.78c-3.61,.56-6.45,3.39-7,7l-2.78,18.03-2.78-18.03c-.56-3.61-3.39-6.45-7-7l-18.03-2.78,18.03-2.78c3.61-.56,6.45-3.39,7-7l2.78-18.03,2.78,18.03c.56,3.61,3.39,6.45,7,7l18.03,2.78Z"/>
        <path class="cls-7" d="M1522.58,2092.26l-18.03,2.78c-3.61,.56-6.45,3.39-7,7l-2.78,18.03-2.78-18.03c-.56-3.61-3.39-6.45-7-7l-18.03-2.78,18.03-2.78c3.61-.56,6.45-3.39,7-7l2.78-18.03,2.78,18.03c.56,3.61,3.39,6.45,7,7l18.03,2.78Z"/>
        <path class="cls-7" d="M1695.46,2270.58l-18.14,2.8c-3.64,.56-6.49,3.41-7.05,7.05l-2.8,18.14-2.8-18.14c-.56-3.64-3.41-6.49-7.05-7.05l-18.14-2.8,18.14-2.8c3.63-.56,6.49-3.41,7.05-7.05l2.8-18.14,2.8,18.14c.56,3.64,3.41,6.49,7.05,7.05l18.14,2.8Z"/>
        <path class="cls-7" d="M2517.34,2065.83l-24.46,3.78c-4.9,.76-8.75,4.6-9.5,9.5l-3.78,24.46-3.78-24.46c-.76-4.9-4.6-8.75-9.5-9.5l-24.46-3.78,24.46-3.78c4.9-.76,8.75-4.6,9.5-9.5l3.78-24.46,3.78,24.46c.76,4.9,4.6,8.75,9.5,9.5l24.46,3.78Z"/>
        <path class="cls-7" d="M316.86,1775.83l-21.22,3.28c-4.25,.66-7.59,3.99-8.24,8.24l-3.28,21.22-3.28-21.22c-.66-4.25-3.99-7.59-8.24-8.24l-21.22-3.28,21.22-3.28c4.25-.66,7.59-3.99,8.24-8.24l3.28-21.22,3.28,21.22c.66,4.25,3.99,7.59,8.24,8.24l21.22,3.28Z"/>
        <path class="cls-7" d="M1232.83,2023.1l-22.99,3.55c-4.61,.71-8.22,4.33-8.93,8.93l-3.55,22.99-3.55-22.99c-.71-4.61-4.33-8.22-8.93-8.93l-22.99-3.55,22.99-3.55c4.61-.71,8.22-4.32,8.93-8.93l3.55-22.99,3.55,22.99c.71,4.61,4.32,8.22,8.93,8.93l22.99,3.55Z"/>
        <path class="cls-7" d="M2246.34,2178.24l-21.88,3.38c-4.38,.68-7.82,4.12-8.5,8.5l-3.38,21.88-3.38-21.88c-.68-4.38-4.12-7.82-8.5-8.5l-21.88-3.38,21.88-3.38c4.38-.68,7.82-4.12,8.5-8.5l3.38-21.88,3.38,21.88c.68,4.38,4.12,7.82,8.5,8.5l21.88,3.38Z"/>
        <path class="cls-7" d="M912.44,2017.74l-18.03,2.78c-3.61,.56-6.45,3.39-7,7l-2.78,18.03-2.78-18.03c-.56-3.61-3.39-6.45-7-7l-18.03-2.78,18.03-2.78c3.61-.56,6.45-3.39,7-7l2.78-18.03,2.78,18.03c.56,3.61,3.39,6.45,7,7l18.03,2.78Z"/>
        <path class="cls-7" d="M959.63,2240.77l-11.99-13.75c-2.4-2.75-6.31-3.64-9.66-2.18l-16.72,7.28,13.75-11.99c2.75-2.4,3.64-6.31,2.18-9.66l-7.28-16.72,11.99,13.75c2.4,2.76,6.31,3.64,9.66,2.18l16.72-7.28-13.75,11.99c-2.75,2.4-3.64,6.31-2.18,9.66l7.28,16.72Z"/>
        <path class="cls-7" d="M1301.34,2262.88l-20.87,3.22c-4.18,.65-7.46,3.93-8.11,8.11l-3.22,20.87-3.22-20.87c-.65-4.18-3.93-7.46-8.11-8.11l-20.87-3.22,20.87-3.22c4.18-.65,7.46-3.93,8.11-8.11l3.22-20.87,3.22,20.87c.65,4.18,3.93,7.46,8.11,8.11l20.87,3.22Z"/>
        <path class="cls-7" d="M643.05,2086.49l-18.03,2.78c-3.61,.56-6.45,3.39-7,7l-2.78,18.03-2.78-18.03c-.56-3.61-3.39-6.45-7-7l-18.03-2.78,18.03-2.78c3.61-.56,6.45-3.39,7-7l2.78-18.03,2.78,18.03c.56,3.61,3.39,6.45,7,7l18.03,2.78Z"/>
        <path class="cls-7" d="M2785.17,1796l-21.33,3.29c-4.27,.66-7.63,4.01-8.29,8.29l-3.29,21.33-3.29-21.33c-.66-4.27-4.01-7.63-8.29-8.29l-21.33-3.29,21.33-3.29c4.27-.66,7.63-4.01,8.29-8.29l3.29-21.33,3.29,21.33c.66,4.27,4.01,7.63,8.29,8.29l21.33,3.29Z"/>
      </g>
      <g>
        <polygon class="cls-1" points="2353 2067.08 1666.64 2067.08 1701.41 1980.57 1753.07 1852.08 2195.7 1856.74 2297.43 1992.78 2353 2067.08"/>
        <path class="cls-8" d="M2383.48,2082.34h-739.44l98.78-245.62,460.6,4.86,180.06,240.76Zm-694.25-30.53h633.3l-134.52-179.87-424.65-4.48-74.13,184.35Z"/>
        <path class="cls-8" d="M2258.98,2017.79c-21.18,.06-42.34-.35-63.52-.51l-63.5-1.3c-21.16-.31-42.36-1.24-63.44-1.74-21.13-.4-42.27-.63-63.42-.64-42.3-.62-84.62-.5-126.94-.85l-63.49-.55c-21.17-.42-42.33-.55-63.51-1.11,21.15-1.14,42.31-1.74,63.47-2.57l63.49-1.54c42.33-.84,84.68-.91,127.03-.88,21.18,.24,42.36,.7,63.55,1.33,21.23,.85,42.33,1.6,63.47,2.81l63.4,3.38c21.13,1.4,42.26,2.54,63.39,4.16Z"/>
        <path class="cls-8" d="M2230.68,1971.12c-19.46,.2-38.92-.08-58.38-.11l-58.39-.89c-38.93-.65-77.77-2.29-116.66-3.41l-116.6-3.95c-19.44-.64-38.83-1.21-58.27-.77-19.44-.06-38.89,.13-58.38-.15,38.8-2.44,77.76-5.29,116.74-4.84,38.95-.03,77.86,1.02,116.76,2.23,38.89,1.32,77.79,3.15,116.63,5.17l58.27,2.98c19.42,1.26,38.85,2.27,58.28,3.76Z"/>
        <path class="cls-8" d="M2201.45,1930.86c-17.89-.1-35.73-.68-53.58-1l-53.49-1.78-107.01-3.24-106.98-3.77c-17.83-.67-35.64-1.22-53.48-1.43-17.89-.64-35.76-1.03-53.56-1.89,35.73-1.35,71.35-2.58,107.14-2.45,35.73-.01,71.43,.95,107.13,2.05,35.69,1.32,71.36,2.65,107.02,5l53.46,3.87c17.8,1.56,35.6,2.87,53.36,4.65Z"/>
        <path class="cls-8" d="M2175.27,1892.2c-32.34,3.3-64.9,2.02-97.29,1.54-32.4-.64-64.78-1.75-97.16-2.72l-97.12-3.53c-16.18-.66-32.37-1.26-48.54-1.58-16.08-.56-32.63-.47-48.4-1.53l48.39-2.14c16.24-.42,32.45-.47,48.67-.51,32.44-.03,64.85,.82,97.25,1.8,32.4,1.16,64.79,2.46,97.15,4.48,16.17,1.01,32.33,1.96,48.51,2.72,16.17,.88,32.35,1.88,48.54,1.47Z"/>
      </g>
      <polygon class="cls-1" points="2696.17 1959.58 2009.82 1959.58 2096.29 1744.59 2162.46 1745.27 2538.88 1749.28 2696.17 1959.58"/>
      <path class="cls-1" d="M1606.99,1735.45l-246.79,222.75s219.96-11.32,322.05-11.03c83.24,.24,361.67,21.56,361.67,21.56l64.75-224.13-501.68-9.15Z"/>
      <g class="cls-14">
        <path class="cls-8" d="M2297.43,1992.78h-247.05l-2.63,9.16s-248.81-19.08-346.34-21.37l51.67-128.49,442.62,4.66,101.74,136.04Z"/>
      </g>
      <polygon class="cls-1" points="2696.17 1959.58 2009.82 1959.58 2096.29 1744.59 2162.46 1745.27 2538.88 1749.28 2696.17 1959.58"/>
      <path class="cls-8" d="M2726.66,1974.84h-739.44l98.78-245.62,460.6,4.86,180.06,240.76Zm-694.25-30.53h633.3l-134.52-179.87-424.65-4.48-74.13,184.35Z"/>
      <path class="cls-8" d="M2602.16,1910.3c-21.18,.07-42.34-.35-63.52-.51l-63.5-1.29c-21.16-.31-42.36-1.24-63.44-1.74-21.13-.4-42.27-.63-63.42-.65-42.3-.62-84.62-.49-126.94-.84l-63.49-.55c-21.17-.42-42.33-.55-63.51-1.11,21.15-1.14,42.31-1.74,63.47-2.57l63.49-1.54c42.33-.84,84.68-.91,127.03-.88,21.18,.24,42.36,.7,63.55,1.33,21.23,.85,42.33,1.6,63.47,2.81l63.4,3.38c21.13,1.4,42.26,2.54,63.39,4.16Z"/>
      <path class="cls-8" d="M2573.87,1863.63c-19.46,.2-38.92-.08-58.38-.11l-58.39-.9c-38.93-.65-77.77-2.28-116.66-3.41l-116.6-3.95c-19.44-.64-38.83-1.21-58.27-.77-19.44-.06-38.89,.13-58.38-.15,38.8-2.44,77.76-5.3,116.74-4.84,38.95-.03,77.86,1.02,116.76,2.23,38.89,1.32,77.79,3.15,116.63,5.17l58.27,2.98c19.42,1.26,38.85,2.27,58.28,3.76Z"/>
      <path class="cls-8" d="M2544.63,1828.37c-17.89-.1-35.73-.68-53.58-1l-53.49-1.78-107.01-3.24-106.98-3.77c-17.83-.67-35.64-1.22-53.48-1.42-17.89-.64-35.75-1.03-53.56-1.89,35.73-1.35,71.35-2.58,107.14-2.45,35.73-.01,71.43,.95,107.13,2.05,35.69,1.32,71.36,2.65,107.02,5l53.46,3.87c17.8,1.56,35.6,2.87,53.36,4.65Z"/>
      <path class="cls-8" d="M2518.45,1794.71c-32.34,3.31-64.9,2.02-97.29,1.54-32.4-.64-64.78-1.75-97.16-2.72l-97.12-3.53c-16.18-.66-32.37-1.26-48.54-1.58-16.08-.56-32.63-.47-48.4-1.53l48.39-2.14c16.24-.42,32.45-.47,48.67-.51,32.44-.03,64.85,.82,97.25,1.8,32.4,1.16,64.79,2.46,97.15,4.48,16.17,1.01,32.33,1.96,48.51,2.72,16.17,.88,32.35,1.88,48.54,1.47Z"/>
      <path class="cls-8" d="M13.26,1686.71l94.04-1.7,94.04-1.28,188.07-2.53,376.14-3.15c125.38-1.27,250.76-1.36,376.15-2.01l376.14-.62,376.14,.61c125.38,.67,250.76,.73,376.15,2.01l376.14,3.15,188.07,2.54,94.04,1.29,94.04,1.71c7.46,.13,13.39,6.29,13.26,13.75-.13,7.28-6.03,13.12-13.26,13.26l-94.04,1.7-94.04,1.29-188.07,2.54-376.14,3.15c-125.38,1.28-250.76,1.34-376.15,2.01l-376.14,.61-376.14-.62c-125.38-.65-250.76-.74-376.15-2.01l-376.14-3.15-188.07-2.53-94.04-1.28-94.04-1.7c-7.46-.14-13.39-6.29-13.26-13.75,.13-7.29,6.04-13.12,13.26-13.26Z"/>
      <path class="cls-2" d="M1284.82,1925.57l215.91-200.73c.86-.8,1.35-1.93,1.35-3.11v-36.06c0-2.44-2.06-4.38-4.5-4.23l-690.65,42.15-320.54,201.99h798.42Z"/>
      <g class="cls-13">
        <path class="cls-9" d="M1502.09,1704.97v16.75c0,1.18-.5,2.33-1.37,3.13l-215.91,200.72H486.41l58.42-36.82h725.39l231.86-183.78Z"/>
      </g>
      <path class="cls-8" d="M1290.82,1940.83H433.54l368.56-232.25,694.55-42.39c5.38-.29,10.65,1.59,14.56,5.26,3.9,3.67,6.14,8.85,6.14,14.21v36.06c0,5.38-2.26,10.58-6.19,14.26l-220.34,204.84Zm-751.57-30.53h739.57l208-193.37v-19.55l-675.06,41.19-272.51,171.72Z"/>
      <polygon class="cls-2" points="1284.82 1840.73 1502.09 1681.16 806.93 1681.16 486.4 1840.73 1284.82 1840.73"/>
      <polygon class="cls-1" points="1228.78 1820.57 1370.11 1716.77 917.9 1716.77 709.39 1820.57 1228.78 1820.57"/>
      <path class="cls-8" d="M1288.1,1850.72H443.87l360.71-179.56h684.56c6.17,0,11.61,3.94,13.54,9.81,1.92,5.87-.13,12.26-5.11,15.92l-209.47,153.84Zm-759.17-20h752.62l190.03-139.56H809.29l-280.36,139.56Z"/>
      <path class="cls-2" d="M1264.24,1935.01H355.98c-5.88,0-11.26-2.4-15.15-6.41-2.56-2.6-4.46-5.95-5.42-9.73l-152.76-619.96c-6.6-26.75,13.62-52.59,41.18-52.59h847.93c27.93,0,52.39,18.2,60.68,44.57,.42,1.26,.8,2.56,1.11,3.85l151.27,613.96c3.32,13.36-6.83,26.29-20.57,26.29Z"/>
      <path class="cls-9" d="M1264.24,1935.01H355.98c-5.88,0-11.26-2.4-15.15-6.41,111.35,5.38,498.38,8.43,683.19-190.96,118.34-127.68,120.24-327.72,108.41-446.75,.42,1.26,.8,2.56,1.11,3.85l151.27,613.96c3.32,13.36-6.83,26.29-20.57,26.29Z"/>
      <g class="cls-14">
        <path class="cls-1" d="M229.1,1317.53l152.15,617.48h-25.26c-9.77,0-18.24-6.68-20.57-16.14l-152.76-619.96c-6.6-26.75,13.62-52.59,41.18-52.59h847.93c28.54,0,53.5,19,61.21,46.33-2.67-.34-5.34-.53-8.09-.53H249.02c-13.32,0-23.13,12.48-19.92,25.42Z"/>
      </g>
      <path class="cls-8" d="M1264.23,1950.26H355.99c-16.83,0-31.39-11.41-35.41-27.75l-152.75-619.96c-4.27-17.33-.41-35.33,10.6-49.38,11.01-14.05,27.56-22.11,45.41-22.11h847.93c36.39,0,67.89,24.68,76.6,60.02l151.28,613.97c2.7,10.96,.25,22.34-6.71,31.23-6.96,8.88-17.42,13.97-28.71,13.97ZM223.83,1261.59c-8.4,0-16.2,3.79-21.38,10.41-5.19,6.61-7,15.09-5,23.24l152.75,619.96c.66,2.67,3.03,4.53,5.78,4.53h908.24c2.52,0,4.01-1.43,4.68-2.28,.67-.85,1.7-2.65,1.1-5.1l-151.28-613.97c-5.34-21.67-24.65-36.8-46.96-36.8H223.83Z"/>
      <g class="cls-14">
        <polygon class="cls-8" points="2162.46 1745.27 2100.56 1959.58 2009.82 1959.58 2096.29 1744.59 2162.46 1745.27"/>
      </g>
      <path class="cls-1" d="M1606.99,1735.45l-246.79,222.75s219.96-11.32,322.05-11.03c83.24,.24,361.67,21.56,361.67,21.56l64.75-224.13-501.68-9.15Z"/>
      <path class="cls-8" d="M2055.13,1984.89l-12.38-.95c-2.78-.21-278.82-21.28-360.55-21.51-100.36-.21-319.02,10.9-321.22,11.01l-42.91,2.21,283.16-255.58,527.62,9.62-73.73,255.2Zm-376.76-52.99c1.32,0,2.62,0,3.91,0,73.78,.21,294.88,16.49,350.41,20.66l55.78-193.08-475.73-8.67-210.57,190.06c68.18-3.2,201.44-8.97,276.2-8.97Z"/>
      <path class="cls-8" d="M1739.59,1738.52c.1,33.92-6.53,67.27-19.22,96.67l-5.28,12.18c-6.04,13.98-21.19,13.98-27.23,0l-5.45-12.62c-12.56-29.1-19.19-62.14-19.19-95.75v-346.82c0-11.92,16.86-21.6,37.69-21.6s37.66,9.69,37.66,21.6c0,.57-.03,1.14-.13,1.71l1.15,344.63Z"/>
      <path class="cls-8" d="M2003.67,1905.05c-20.94-.34-41.84-1.16-62.75-1.72l-62.67-2.5c-41.75-2.06-83.56-3.37-125.35-4.59-41.78-1.71-83.58-2.97-125.36-4.28-20.91-.8-41.72-.92-62.68-1.31-20.93-.62-41.85-.99-62.76-1.84,41.85-1.37,83.6-2.66,125.53-2.62,41.87,.12,83.69,1.45,125.52,2.57l62.71,2.66c20.9,.86,41.8,2.04,62.67,3.68l62.61,4.59c20.85,1.8,41.71,3.35,62.53,5.37Z"/>
      <path class="cls-8" d="M2025.83,1868.11c-26.39-.3-52.73-1.07-79.03-2.33-13.16-.53-26.3-1.32-39.45-1.99-13.15-.74-26.27-1.68-39.4-2.21l-78.84-3.86c-26.29-1.15-52.56-2.66-78.93-3.38,26.3-2.19,52.72-2.63,79.08-2.47,26.37,.12,52.72,.98,79.06,2.22,26.36,1.43,52.59,3.62,78.85,5.87,26.26,2.24,52.48,4.95,78.65,8.14Z"/>
      <path class="cls-1" d="M2092.92,1056.31s69.92,153.82,81.71,328.4c12,177.8-5.38,430.56-419.43,396.29-145.14-12.02-138.09-73.69-143.48-146.45-6.68-90.15,3.62-193.67,108.95-197.54,190.35-6.99,247.2-48.49,274.26-165.21"/>
      <g class="cls-14">
        <path class="cls-8" d="M2176.19,1483.92c-8.05,158.94-80.06,325.28-420.99,297.08-145.16-12.02-138.1-73.69-143.48-146.46-3.66-49.34-2.21-102.69,17.1-141.5,.19,10.72,.72,21.45,1.53,31.98,5.38,72.73-1.68,134.44,143.45,146.42,261.63,21.67,364.89-71.28,402.4-187.52Z"/>
      </g>
      <path class="cls-8" d="M1949.18,1350.9c3.15-6.58,6.86-12.65,10.49-18.96,3.6-6.3,7.55-12.59,11.21-19.19,7.45-13.17,14.26-27.18,22.31-41.35,.5-.9,1.64-1.22,2.53-.71,.57,.32,.91,.91,.95,1.52,.91,16.38-.84,32.64-4.79,48.74-2.04,8.01-4.51,16.07-8.23,23.65-3.69,7.57-8.2,14.92-14.27,21.03-4.92,4.96-12.92,4.99-17.88,.07-3.92-3.89-4.76-9.7-2.51-14.41l.19-.38Z"/>
      <path class="cls-8" d="M1826.88,1799.36c-23.24,0-47.56-1.05-72.95-3.15-148.08-12.26-152.33-80.01-156.44-145.53-.31-4.94-.62-9.94-1-15-6.23-84.18,5.84-141.97,36.89-176.67,20.92-23.38,50.1-35.91,86.72-37.26,121.11-4.45,184.97-23.1,220.43-64.39,5.5-6.4,15.14-7.12,21.52-1.63,6.4,5.49,7.12,15.13,1.63,21.53-41.64,48.48-111.88,70.21-242.47,75-28.41,1.04-49.71,9.91-65.1,27.11-25.23,28.19-34.78,78.58-29.19,154.05,.38,5.18,.7,10.3,1.02,15.35,4.04,64.39,6.71,106.93,128.49,117.02,151.97,12.57,262.09-13.6,327.3-77.82,79.82-78.62,82.35-202.81,75.64-302.22-11.46-169.85-79.68-321.6-80.37-323.12-3.49-7.67-.09-16.72,7.58-20.21,7.68-3.49,16.72-.1,20.21,7.58,2.9,6.38,71.21,158.36,83.04,333.69,7.15,105.92,3.99,238.7-84.68,326.03-60.51,59.6-153.94,89.65-278.29,89.65Z"/>
      <path class="cls-8" d="M2117.86,1687.24c-.22,0-.44,0-.67-.01-8.42-.36-14.96-7.49-14.59-15.91,10.86-251.01-143.99-291.73-150.59-293.34-8.17-1.99-13.21-10.22-11.25-18.4,1.96-8.17,10.16-13.22,18.32-11.3,1.95,.46,48.36,11.81,92.99,58.25,40.4,42.04,87.26,122.34,81.04,266.11-.35,8.2-7.11,14.6-15.24,14.6Z"/>
      <g id="simbolo">
        <path class="cls-11" d="M764.18,1648c-4.31,0-8.52-1.53-11.98-4.48l-112.23-95.77c-5.21-4.45-7.51-11.12-6.15-17.83,1.37-6.72,6.08-11.96,12.62-14.02l132.62-41.78c6.14-1.94,12.74-.59,17.64,3.59,4.9,4.18,7.26,10.48,6.32,16.86l-20.39,137.54c-1.01,6.78-5.44,12.26-11.86,14.67-2.17,.81-4.4,1.21-6.6,1.21Zm20.54-165.3c-.93,0-1.87,.14-2.81,.44l-132.62,41.78c-3.21,1.01-5.53,3.59-6.2,6.89-.67,3.3,.46,6.58,3.02,8.77l112.23,95.77c2.56,2.19,5.98,2.79,9.13,1.6,3.16-1.18,5.33-3.88,5.83-7.21l20.39-137.54c.47-3.18-.66-6.2-3.11-8.29-1.7-1.45-3.74-2.2-5.86-2.2Z"/>
        <path class="cls-12" d="M638.25,1675.28c-2.78,0-5.5-.98-7.69-2.85-3.13-2.67-4.64-6.7-4.04-10.78l.12-.84,.41-.74c.22-.4,22.03-40.06,44.38-79.36,13.14-23.1,23.89-41.57,31.96-54.89,4.82-7.96,8.74-14.16,11.65-18.44,5.04-7.42,6.78-8.79,9-9.2,1.5-.27,3.02,.13,4.16,1.11l57.99,49.48c1.15,.98,1.78,2.41,1.75,3.94-.05,2.26-1.13,4.19-7.67,10.34-3.77,3.54-9.28,8.39-16.38,14.4-11.88,10.07-28.43,23.59-49.18,40.2-35.3,28.25-71.03,56.03-71.39,56.31l-.67,.52-.81,.25c-1.18,.37-2.4,.56-3.59,.56Zm-2.4-11.6c.09,.83,.59,1.36,.84,1.57,.25,.21,.85,.63,1.68,.59,5.46-4.25,36.37-28.34,67.65-53.34,20.13-16.09,36.46-29.39,48.55-39.55,13.56-11.4,19.59-17,22.27-19.73l-51.56-43.99c-2.28,3.07-6.87,9.91-15.99,25.09-8.13,13.53-18.7,31.76-31.42,54.17-19.77,34.82-38.69,69.14-42.03,75.2Z"/>
      </g>
    </g>
  </g>
</svg>