<?xml version="1.0" encoding="UTF-8"?>
<svg id="Camada_2" data-name="Camada 2" xmlns="http://www.w3.org/2000/svg" xmlns:xlink="http://www.w3.org/1999/xlink" viewBox="0 0 553.55 640.79">
  <defs>
    <style>
      .cls-1, .cls-2 {
        fill: #fff;
      }

      .cls-1, .cls-3 {
        stroke: #6c24d7;
        stroke-miterlimit: 10;
        stroke-width: 5px;
      }

      .cls-4 {
        fill: url(#Gradiente_sem_nome_7);
      }

      .cls-5 {
        fill: #6c24d7;
      }

      .cls-6, .cls-7 {
        fill: #bcbcbc;
      }

      .cls-8 {
        fill: #4913ae;
      }

      .cls-3 {
        fill: none;
      }

      .cls-7 {
        isolation: isolate;
        opacity: .5;
      }
    </style>
    <linearGradient id="Gradiente_sem_nome_7" data-name="Gradiente sem nome 7" x1="75.3" y1="847.45" x2="246" y2="610.55" gradientTransform="translate(200.68 -270.11) rotate(14.8)" gradientUnits="userSpaceOnUse">
      <stop offset=".07" stop-color="#fff" stop-opacity="0"/>
      <stop offset=".42" stop-color="#e577ff" stop-opacity=".53"/>
      <stop offset="1" stop-color="#f0f"/>
    </linearGradient>
  </defs>
  <g id="Camada_1-2" data-name="Camada 1">
    <g>
      <path class="cls-4" d="M90.6,640.79c35.85-15.2,90.59-44.15,141.01-97.92,70.17-74.83,67.4-128.88,97.38-171.18,1.67-2.35,6.06-9.19,4.54-15.52-2.58-10.77-17.85-17.36-35.4-10.77-25.13,27.52-68.16,67.92-131.78,100.1C99.18,479.47,37.92,489.68,0,493.06c30.2,49.24,60.4,98.49,90.6,147.73Z"/>
      <g>
        <polygon class="cls-1" points="314.03 425.15 251.06 380.24 271.82 357.02 327 396.47 314.03 425.15"/>
        <polygon class="cls-6" points="314.51 421.97 295.02 409.55 321.2 372.21 327 396.47 314.51 421.97"/>
        <polygon class="cls-3" points="314.03 425.15 251.06 380.24 271.82 357.02 327 396.47 314.03 425.15"/>
      </g>
      <g>
        <path class="cls-2" d="M483.99,270.76c77.58-134.73,69.56-226.68,63.31-257.86-1.38-6.92-7.85-11.45-14.56-10.19-30.2,5.71-115.37,32.47-206.63,157.62,0,0-54.35,74.07-67.67,172.96l48.21,33.7,48.21,33.7c83.36-49.93,129.16-129.98,129.16-129.98h0v.03Z"/>
        <path class="cls-3" d="M483.99,270.76c77.58-134.73,69.56-226.68,63.31-257.86-1.38-6.92-7.85-11.45-14.56-10.19-30.2,5.71-115.37,32.47-206.63,157.62,0,0-54.35,74.07-67.67,172.96l48.21,33.7,48.21,33.7c83.36-49.93,129.16-129.98,129.16-129.98h0v.03Z"/>
      </g>
      <g>
        <path class="cls-7" d="M538.58,3.1s24.78,268.44-210.42,376.7c13.45,20.65,26.67,20.93,26.67,20.93l49.19-32.77s89.09-89.54,114.14-165.59c25.05-76.05,37.82-113.75,29.12-189.49-3.14-5.46-8.7-9.79-8.7-9.79h0Z"/>
        <path class="cls-3" d="M483.99,270.76c77.58-134.73,69.56-226.68,63.31-257.86-1.38-6.92-7.85-11.45-14.56-10.19-30.2,5.71-115.37,32.47-206.63,157.62,0,0-54.35,74.07-67.67,172.96l48.21,33.7,48.21,33.7c83.36-49.93,129.16-129.98,129.16-129.98h0v.03Z"/>
        <polygon class="cls-8" points="276.69 327.13 353.52 380.85 333.41 411.81 256.58 358.09 276.69 327.13"/>
      </g>
      <path class="cls-5" d="M320.83,210.48l-89.29,28.9c-11.66,3.77-21.31,12.36-26.69,23.74l-53.67,113.57c-2.63,5.57,.25,12.25,6.02,13.91h0c3.6,1.03,7.42-.17,9.84-3.14,15.61-19.1,75.73-87.65,129.79-81.72l24.02-95.24h-.01Z"/>
      <path class="cls-5" d="M442.73,295.73l7.69,96.71c1.01,12.63-3.06,25.14-11.19,34.57l-81.34,94.21c-3.98,4.62-11.04,4.34-14.68-.57h0c-2.27-3.08-2.62-7.21-.89-10.65,11.2-22.16,49.9-105.71,24.33-155.48l76.09-58.82h0Z"/>
      <path class="cls-5" d="M249.28,468.4l-10.29-7.2c-2.3-1.61-2.94-4.83-1.44-7.25l117.2-188.67c1.91-3.08,5.87-3.91,8.8-1.89l15.74,11.01c2.92,2.05,3.66,6.17,1.62,9.17l-124.61,183.5c-1.6,2.34-4.71,2.94-7,1.34h-.02Z"/>
      <g>
        <path class="cls-5" d="M470.83,207.95c-15.31,23.58-46.15,29.79-68.87,13.91-22.72-15.88-28.72-47.87-13.41-71.45,15.31-23.58,46.15-29.79,68.87-13.91,22.72,15.88,28.72,47.87,13.41,71.45Z"/>
        <path class="cls-8" d="M456.74,198.11c-9.93,15.29-29.93,19.33-44.66,9.02-14.73-10.3-18.63-31.05-8.69-46.33,9.93-15.29,29.93-19.33,44.66-9.02,14.73,10.3,18.63,31.05,8.69,46.33Z"/>
      </g>
    </g>
  </g>
</svg>