<?xml version="1.0" encoding="UTF-8"?>
<svg id="Camada_2" data-name="Camada 2" xmlns="http://www.w3.org/2000/svg" xmlns:xlink="http://www.w3.org/1999/xlink" viewBox="0 0 890.6 413.54">
  <defs>
    <style>
      .cls-1 {
        fill: #fff;
      }

      .cls-2 {
        fill: none;
        stroke: url(#Gradiente_sem_nome_2);
        stroke-miterlimit: 10;
        stroke-width: 30px;
      }
    </style>
    <linearGradient id="Gradiente_sem_nome_2" data-name="Gradiente sem nome 2" x1="-.14" y1="191.52" x2="356.77" y2="191.52" gradientTransform="translate(2.95 8.91) rotate(.44)" gradientUnits="userSpaceOnUse">
      <stop offset="0" stop-color="#5f12e0"/>
      <stop offset=".19" stop-color="#6817e0"/>
      <stop offset=".49" stop-color="#8124e1"/>
      <stop offset=".58" stop-color="#8a29e2"/>
      <stop offset=".99" stop-color="#6210e1"/>
    </linearGradient>
  </defs>
  <g id="Camada_1-2" data-name="Camada 1">
    <g>
      <g>
        <path class="cls-1" d="m526.11,350.26h-52.49s0-102,0-102h-30.36l-15.87,102h-53.13L428.8.26h97.32s0,350,0,350Zm-52.49-146V44.49h-1l-22.51,159.77h23.51Z"/>
        <path class="cls-1" d="m662.1,350.26h-111V.26h52.5v306h58.5v44Z"/>
        <path class="cls-1" d="m738.6,350.26h-52.5V43.76h-43.5V.26h197.73v43.5h-101.73v306.5Zm108,0h-40.5c-12.34,0-22.75-4.25-31.25-12.75s-12.75-18.75-12.75-30.75V44.26c0-12.33,4.25-22.75,12.75-31.25s18.91-12.75,31.25-12.75h40.5c12.33,0,22.75,4.25,31.25,12.75s12.75,18.92,12.75,31.25v262.5c0,12-4.25,22.25-12.75,30.75s-18.92,12.75-31.25,12.75Zm-20.5-44c3.33,0,6.16-1.08,8.5-3.25,2.33-2.16,3.5-4.91,3.5-8.25V55.76c0-3.33-1.17-6.08-3.5-8.25-2.34-2.16-5.17-3.25-8.5-3.25-3,0-5.67,1.09-8,3.25-2.34,2.17-3.5,4.92-3.5,8.25v239c0,3.34,1.16,6.09,3.5,8.25,2.33,2.17,5,3.25,8,3.25Z"/>
      </g>
      <g>
        <path class="cls-1" d="m374.27,369.83c1.9-.4,4.9-.7,7.95-.7,4.35,0,7.15.75,9.25,2.45,1.75,1.3,2.8,3.3,2.8,5.95,0,3.25-2.15,6.1-5.7,7.4v.1c3.2.8,6.95,3.45,6.95,8.45,0,2.9-1.15,5.1-2.85,6.75-2.35,2.15-6.15,3.15-11.65,3.15-3,0-5.3-.2-6.75-.4v-33.15Zm4.35,13.8h3.95c4.6,0,7.3-2.4,7.3-5.65,0-3.95-3-5.5-7.4-5.5-2,0-3.15.15-3.85.3v10.85Zm0,16.15c.85.15,2.1.2,3.65.2,4.5,0,8.65-1.65,8.65-6.55,0-4.6-3.95-6.5-8.7-6.5h-3.6v12.85Z"/>
        <path class="cls-1" d="m400.97,386.43c0-2.85-.05-5.3-.2-7.55h3.85l.15,4.75h.2c1.1-3.25,3.75-5.3,6.7-5.3.5,0,.85.05,1.25.15v4.15c-.45-.1-.9-.15-1.5-.15-3.1,0-5.3,2.35-5.9,5.65-.1.6-.2,1.3-.2,2.05v12.9h-4.35v-16.65Z"/>
        <path class="cls-1" d="m430.22,403.09l-.35-3.05h-.15c-1.35,1.9-3.95,3.6-7.4,3.6-4.9,0-7.4-3.45-7.4-6.95,0-5.85,5.2-9.05,14.55-9v-.5c0-2-.55-5.6-5.5-5.6-2.25,0-4.6.7-6.3,1.8l-1-2.9c2-1.3,4.9-2.15,7.95-2.15,7.4,0,9.2,5.05,9.2,9.9v9.05c0,2.1.1,4.15.4,5.8h-4Zm-.65-12.35c-4.8-.1-10.25.75-10.25,5.45,0,2.85,1.9,4.2,4.15,4.2,3.15,0,5.15-2,5.85-4.05.15-.45.25-.95.25-1.4v-4.2Z"/>
        <path class="cls-1" d="m440.67,385.43c0-2.5-.05-4.55-.2-6.55h3.9l.25,4h.1c1.2-2.3,4-4.55,8-4.55,3.35,0,8.55,2,8.55,10.3v14.45h-4.4v-13.95c0-3.9-1.45-7.15-5.6-7.15-2.9,0-5.15,2.05-5.9,4.5-.2.55-.3,1.3-.3,2.05v14.55h-4.4v-17.65Z"/>
        <path class="cls-1" d="m489.07,367.58v29.25c0,2.15.05,4.6.2,6.25h-3.95l-.2-4.2h-.1c-1.35,2.7-4.3,4.75-8.25,4.75-5.85,0-10.35-4.95-10.35-12.3-.05-8.05,4.95-13,10.85-13,3.7,0,6.2,1.75,7.3,3.7h.1v-14.45h4.4Zm-4.4,21.15c0-.55-.05-1.3-.2-1.85-.65-2.8-3.05-5.1-6.35-5.1-4.55,0-7.25,4-7.25,9.35,0,4.9,2.4,8.95,7.15,8.95,2.95,0,5.65-1.95,6.45-5.25.15-.6.2-1.2.2-1.9v-4.2Z"/>
        <path class="cls-1" d="m501.01,372.08c.05,1.5-1.05,2.7-2.8,2.7-1.55,0-2.65-1.2-2.65-2.7s1.15-2.75,2.75-2.75,2.7,1.2,2.7,2.75Zm-4.9,31v-24.2h4.4v24.2h-4.4Z"/>
        <path class="cls-1" d="m507.56,385.43c0-2.5-.05-4.55-.2-6.55h3.9l.25,4h.1c1.2-2.3,4-4.55,8-4.55,3.35,0,8.55,2,8.55,10.3v14.45h-4.4v-13.95c0-3.9-1.45-7.15-5.6-7.15-2.9,0-5.15,2.05-5.9,4.5-.2.55-.3,1.3-.3,2.05v14.55h-4.4v-17.65Z"/>
        <path class="cls-1" d="m555.92,378.88c-.1,1.75-.2,3.7-.2,6.65v14.05c0,5.55-1.1,8.95-3.45,11.05-2.35,2.2-5.75,2.9-8.8,2.9s-6.1-.7-8.05-2l1.1-3.35c1.6,1,4.1,1.9,7.1,1.9,4.5,0,7.8-2.35,7.8-8.45v-2.7h-.1c-1.35,2.25-3.95,4.05-7.7,4.05-6,0-10.3-5.1-10.3-11.8,0-8.2,5.35-12.85,10.9-12.85,4.2,0,6.5,2.2,7.55,4.2h.1l.2-3.65h3.85Zm-4.55,9.55c0-.75-.05-1.4-.25-2-.8-2.55-2.95-4.65-6.15-4.65-4.2,0-7.2,3.55-7.2,9.15,0,4.75,2.4,8.7,7.15,8.7,2.7,0,5.15-1.7,6.1-4.5.25-.75.35-1.6.35-2.35v-4.35Z"/>
        <path class="cls-1" d="m594.36,403.09c-.95-.95-1.85-1.9-3.15-3.3-2.9,2.7-6.15,3.85-9.85,3.85-6.55,0-10.35-4.4-10.35-9.45,0-4.6,2.75-7.75,6.6-9.85v-.15c-1.75-2.2-2.8-4.65-2.8-7.05,0-4.1,2.95-8.3,8.55-8.3,4.2,0,7.45,2.8,7.45,7.15,0,3.55-2.05,6.35-7.4,9v.15c2.85,3.3,6.05,7,8.2,9.4,1.55-2.35,2.6-5.6,3.25-9.85h4c-.9,5.3-2.35,9.5-4.85,12.45,1.8,1.9,3.55,3.8,5.55,5.95h-5.2Zm-5.3-5.8c-2-2.2-5.75-6.3-9.5-10.6-1.8,1.15-4.35,3.3-4.35,6.85,0,3.85,2.85,6.8,6.9,6.8,2.9,0,5.35-1.3,6.95-3.05Zm-10.25-20.55c0,2.4,1.1,4.25,2.55,6.05,3.4-1.95,5.6-3.75,5.6-6.6,0-2.05-1.15-4.35-3.9-4.35s-4.25,2.3-4.25,4.9Z"/>
        <path class="cls-1" d="m637.16,401.99c-1.6.8-4.8,1.6-8.9,1.6-9.5,0-16.65-6-16.65-17.05s7.15-17.7,17.6-17.7c4.2,0,6.85.9,8,1.5l-1.05,3.55c-1.65-.8-4-1.4-6.8-1.4-7.9,0-13.15,5.05-13.15,13.9,0,8.25,4.75,13.55,12.95,13.55,2.65,0,5.35-.55,7.1-1.4l.9,3.45Z"/>
        <path class="cls-1" d="m663.56,390.78c0,8.95-6.2,12.85-12.05,12.85-6.55,0-11.6-4.8-11.6-12.45,0-8.1,5.3-12.85,12-12.85s11.65,5.05,11.65,12.45Zm-19.2.25c0,5.3,3.05,9.3,7.35,9.3s7.35-3.95,7.35-9.4c0-4.1-2.05-9.3-7.25-9.3s-7.45,4.8-7.45,9.4Z"/>
        <path class="cls-1" d="m668.86,385.43c0-2.5-.05-4.55-.2-6.55h3.85l.2,3.9h.15c1.35-2.3,3.6-4.45,7.6-4.45,3.3,0,5.8,2,6.85,4.85h.1c.75-1.35,1.7-2.4,2.7-3.15,1.45-1.1,3.05-1.7,5.35-1.7,3.2,0,7.95,2.1,7.95,10.5v14.25h-4.3v-13.7c0-4.65-1.7-7.45-5.25-7.45-2.5,0-4.45,1.85-5.2,4-.2.6-.35,1.4-.35,2.2v14.95h-4.3v-14.5c0-3.85-1.7-6.65-5.05-6.65-2.75,0-4.75,2.2-5.45,4.4-.25.65-.35,1.4-.35,2.15v14.6h-4.3v-17.65Z"/>
        <path class="cls-1" d="m730.56,396.48c0,2.5.05,4.7.2,6.6h-3.9l-.25-3.95h-.1c-1.15,1.95-3.7,4.5-8,4.5-3.8,0-8.35-2.1-8.35-10.6v-14.15h4.4v13.4c0,4.6,1.4,7.7,5.4,7.7,2.95,0,5-2.05,5.8-4,.25-.65.4-1.45.4-2.25v-14.85h4.4v17.6Z"/>
        <path class="cls-1" d="m737.61,385.43c0-2.5-.05-4.55-.2-6.55h3.9l.25,4h.1c1.2-2.3,4-4.55,8-4.55,3.35,0,8.55,2,8.55,10.3v14.45h-4.4v-13.95c0-3.9-1.45-7.15-5.6-7.15-2.9,0-5.15,2.05-5.9,4.5-.2.55-.3,1.3-.3,2.05v14.55h-4.4v-17.65Z"/>
        <path class="cls-1" d="m770.01,372.08c.05,1.5-1.05,2.7-2.8,2.7-1.55,0-2.65-1.2-2.65-2.7s1.15-2.75,2.75-2.75,2.7,1.2,2.7,2.75Zm-4.9,31v-24.2h4.4v24.2h-4.4Z"/>
        <path class="cls-1" d="m793.81,402.19c-1.15.6-3.7,1.4-6.95,1.4-7.3,0-12.05-4.95-12.05-12.35s5.1-12.85,13-12.85c2.6,0,4.9.65,6.1,1.25l-1,3.4c-1.05-.6-2.7-1.15-5.1-1.15-5.55,0-8.55,4.1-8.55,9.15,0,5.6,3.6,9.05,8.4,9.05,2.5,0,4.15-.65,5.4-1.2l.75,3.3Z"/>
        <path class="cls-1" d="m812.11,403.09l-.35-3.05h-.15c-1.35,1.9-3.95,3.6-7.4,3.6-4.9,0-7.4-3.45-7.4-6.95,0-5.85,5.2-9.05,14.55-9v-.5c0-2-.55-5.6-5.5-5.6-2.25,0-4.6.7-6.3,1.8l-1-2.9c2-1.3,4.9-2.15,7.95-2.15,7.4,0,9.2,5.05,9.2,9.9v9.05c0,2.1.1,4.15.4,5.8h-4Zm-.65-12.35c-4.8-.1-10.25.75-10.25,5.45,0,2.85,1.9,4.2,4.15,4.2,3.15,0,5.15-2,5.85-4.05.15-.45.25-.95.25-1.4v-4.2Z"/>
        <path class="cls-1" d="m839.81,402.19c-1.05.55-3.35,1.3-6.25,1.4l-1.3,2c1.85.25,3.5,1.55,3.5,3.45,0,2.95-2.45,4.05-5.2,4.05-1.25,0-2.55-.35-3.4-.85l.75-2.15c.8.5,1.8.75,2.7.75,1.1,0,2.15-.4,2.15-1.6-.05-1.3-1.55-1.9-3.9-2.1l2.1-3.65c-6.2-.8-10.15-5.5-10.15-12.25,0-7.45,5.1-12.85,13-12.85,2.6,0,4.9.65,6.1,1.25l-1,3.4c-1.05-.6-2.7-1.15-5.1-1.15-5.55,0-8.55,4.1-8.55,9.15,0,5.6,3.6,9.05,8.4,9.05,2.5,0,4.15-.65,5.4-1.2l.75,3.3Z"/>
        <path class="cls-1" d="m858.11,403.09l-.35-3.05h-.15c-1.35,1.9-3.95,3.6-7.4,3.6-4.9,0-7.4-3.45-7.4-6.95,0-5.85,5.2-9.05,14.55-9v-.5c0-2-.55-5.6-5.5-5.6-2.25,0-4.6.7-6.3,1.8l-1-2.9c2-1.3,4.9-2.15,7.95-2.15,7.4,0,9.2,5.05,9.2,9.9v9.05c0,2.1.1,4.15.4,5.8h-4Zm-11.3-28.35c-.1-3.25,1.25-5.2,3.4-5.2,1.1,0,1.95.45,3.1,1.1.8.45,1.5.85,2.1.85.8,0,1.25-.45,1.4-2.15h2.3c.1,3.35-1.05,5.05-3.4,5.05-1.05,0-2-.45-3.05-1-1-.6-1.55-.9-2.15-.9-.8,0-1.2.85-1.3,2.25h-2.4Zm10.65,16c-4.8-.1-10.25.75-10.25,5.45,0,2.85,1.9,4.2,4.15,4.2,3.15,0,5.15-2,5.85-4.05.15-.45.25-.95.25-1.4v-4.2Z"/>
        <path class="cls-1" d="m890.46,390.78c0,8.95-6.2,12.85-12.05,12.85-6.55,0-11.6-4.8-11.6-12.45,0-8.1,5.3-12.85,12-12.85s11.65,5.05,11.65,12.45Zm-19.2.25c0,5.3,3.05,9.3,7.35,9.3s7.35-3.95,7.35-9.4c0-4.1-2.05-9.3-7.25-9.3s-7.45,4.8-7.45,9.4Z"/>
      </g>
      <path class="cls-2" d="m257.78,330.95L39.96,142.18c-16.07-13.92-10.54-40.1,9.79-46.33L309.47,16.22c19.11-5.86,37.76,10.3,34.67,30.05l-41.89,268.4c-3.28,21.01-28.4,30.21-44.47,16.28ZM200.95,62.76c-4.54-4.08-7.87-7.57-11.3-6.7-3.66,1.1-6.93,6.08-11.68,15.12L16.51,370.17c-1.5,2.77-1.96,6.05-1.02,9.05.09.28.18.55.29.83,3.19,8.29,13.65,10.98,20.79,5.69l271.88-201.5c17.09-13.17,13.36-16.74,5.06-23.94l-112.56-97.54h0Z"/>
    </g>
  </g>
</svg>